<?xml version="1.0" standalone="no"?>
<!DOCTYPE svg PUBLIC "-//W3C//DTD SVG 20010904//EN"
 "http://www.w3.org/TR/2001/REC-SVG-20010904/DTD/svg10.dtd">
<svg version="1.0" xmlns="http://www.w3.org/2000/svg"
 width="512.000000pt" height="512.000000pt" viewBox="0 0 512.000000 512.000000"
 preserveAspectRatio="xMidYMid meet">
<metadata>
Created by potrace 1.14, written by Peter Selinger 2001-2017
</metadata>
<g transform="translate(0.000000,512.000000) scale(0.100000,-0.100000)"
fill="#000000" stroke="none">
<path d="M2348 5115 c-2 -2 -36 -6 -76 -9 -233 -20 -453 -72 -647 -153 -60
-25 -117 -51 -125 -57 -8 -6 -31 -20 -50 -30 -106 -58 -215 -149 -345 -290 -6
-6 -32 -41 -57 -78 -139 -200 -226 -453 -253 -738 -4 -36 -17 -112 -30 -170
-13 -58 -27 -125 -30 -150 -8 -54 -11 -60 -33 -60 -60 -1 -169 -86 -207 -160
-101 -200 26 -437 244 -457 l56 -5 23 -102 c13 -55 24 -108 26 -116 23 -98
130 -345 201 -465 166 -281 442 -543 727 -689 l56 -29 -36 -20 c-51 -27 -168
-109 -221 -154 -278 -238 -452 -535 -527 -898 -8 -42 -18 -141 -17 -172 2 -42
27 -78 68 -97 30 -14 178 -16 1463 -16 965 0 1440 3 1458 10 28 11 73 57 75
75 0 6 2 18 4 28 5 26 -14 160 -33 232 -6 22 -13 51 -16 65 -18 95 -120 321
-192 427 -24 35 -44 67 -44 72 0 5 -3 11 -7 13 -5 2 -33 32 -63 68 -107 127
-253 253 -374 324 -36 21 -64 42 -61 46 2 4 38 24 80 45 41 21 75 42 75 47 0
4 5 8 11 8 10 0 135 83 149 99 3 3 25 22 50 42 304 245 543 642 632 1050 l23
107 56 5 c66 6 141 42 191 92 123 123 118 328 -10 446 -44 41 -113 78 -144 79
-21 0 -25 6 -32 50 -8 52 -23 127 -40 200 -8 36 -17 94 -20 130 -53 544 -307
936 -751 1154 -186 92 -413 158 -620 181 -33 3 -73 8 -90 11 -32 5 -513 13
-517 9z"/>
</g>
</svg>
