<?xml version="1.0" encoding="iso-8859-1"?>
<!-- Generator: Adobe Illustrator 16.0.0, SVG Export Plug-In . SVG Version: 6.00 Build 0)  -->
<!DOCTYPE svg PUBLIC "-//W3C//DTD SVG 1.1//EN" "http://www.w3.org/Graphics/SVG/1.1/DTD/svg11.dtd">
<svg xmlns="http://www.w3.org/2000/svg" xmlns:xlink="http://www.w3.org/1999/xlink" version="1.1" id="Capa_1" x="0px" y="0px" width="512px" height="512px" viewBox="0 0 540.016 540.016" style="enable-background:new 0 0 540.016 540.016;" xml:space="preserve">
<g>
	<g>
		<path d="M322.245,263.521c9.859-11.157,19.064-22.589,27.295-34.284c-8.617-10.098-17.857-20.704-27.766-31.91    c-7.412-8.378-14.26-16.396-20.797-24.217c-9.406,11.346-19.975,23.06-31.193,35.074c7.32,7.791,14.873,15.704,22.558,23.746    C302.228,242.279,312.3,252.823,322.245,263.521z" fill="#999999"/>
		<path d="M202.856,333.18c8.323,7.674,16.365,15.092,24.113,22.275c11.579-10.434,23.685-21.248,35.857-32.441    c-17.809-16.5-35.765-33.967-52.24-52.271c-11.126,12.051-21.971,24.266-32.161,36.574    C185.69,316.086,193.726,324.752,202.856,333.18z" fill="#999999"/>
		<path d="M365.937,165.313c4.131,3.825,8.096,7.632,11.988,11.426c2.98-8.109,5.379-16.31,6.965-24.621    c0.648-3.415,1.219-6.793,1.727-10.141c-11.279-12.681-23.348-25.753-35.975-39.272c-2.479-2.65-4.754-5.098-7.105-7.62    c-2.338,11.249-6.529,23.03-12.875,35.221C340.948,141.317,352.612,152.969,365.937,165.313z" fill="#999999"/>
		<path d="M176.253,403.92c0.239-0.258,0.502-0.525,0.74-0.783c-13.262-11.592-26.524-24.357-38.941-38.594    c-4.988,8.924-9.241,17.848-12.638,26.752c9.761,13.91,20.324,26.633,31.108,38.25    C161.295,421.637,167.722,413.131,176.253,403.92z" fill="#999999"/>
		<path d="M307.851,435.457c12.98-9.891,26.941-20.662,40.955-32.645c-12.221-12.742-27.014-26.396-42.863-40.717    c-12.883,11.965-24.939,23.293-35.986,33.979C284.589,410.322,297.331,423.412,307.851,435.457z" fill="#999999"/>
		<path d="M419.522,323.197c-8.867-15.568-20.49-32.412-35.018-51.207c-6.701,12.033-14.518,23.887-23.715,35.369    c13.15,16.119,25.092,32.447,34.822,48.861C404.192,345.988,412.239,335.002,419.522,323.197z" fill="#999999"/>
		<path d="M242.661,504.746c0.765-8.555,6.395-19.295,20.171-32.723c-9.988-9.15-22.571-18.807-37.093-29.859    c-9.762,11.457-17.381,21.896-22.405,31.328c10.594,8.824,20.49,16.529,28.99,23.146    C236.198,499.648,239.552,502.281,242.661,504.746z" fill="#999999"/>
		<path d="M421.2,433.4c7.135-11.164,13.99-23.256,20.27-36.371c0.391-13.488-1.861-27.051-6.855-41.402    c-6.475,12.949-13.758,25.129-21.621,36.512C418.011,405.928,420.899,419.709,421.2,433.4z" fill="#999999"/>
		<path d="M341.218,501.516c-0.803,5.844-3.25,11.145-7.266,15.875c2.338-1.664,5.129-3.336,8.348-5.066    c15.375-8.281,36.219-21.695,39.678-42.486c1.602-9.645-0.729-20.361-6.678-31.971c-13.396,13.936-26.953,26.193-39.658,36.893    C340.337,484.568,342.325,493.455,341.218,501.516z" fill="#999999"/>
		<path d="M177.202,228.864c-9.676-14.101-17.895-28.593-24.083-43.416c-8.733,8.746-16.708,17.32-23.984,25.716    c4.321,16.451,10.698,34.027,19.945,51.879C157.575,252.272,166.957,240.908,177.202,228.864z" fill="#999999"/>
		<path d="M231.926,165.43c11.946-14.486,22.448-28.122,31.488-40.949c-8.513-12.228-15.649-23.654-21.414-34.339    c-9.266,12.729-20.435,26.383-33.856,40.943c2.84,5.159,6.053,10.435,9.804,15.845    C222.128,152.963,226.853,159.145,231.926,165.43z" fill="#999999"/>
		<path d="M302.153,49.456c-10.074-11.744-17.828-21.72-23.678-30.783c-1.867,7.852-4.914,16.652-9.376,26.358    c4.878,10.355,11.646,22.259,20.986,35.735C295.667,69.542,299.724,59.107,302.153,49.456z" fill="#999999"/>
		<path d="M270.011,540.016c116.273,0,207.351-88.328,207.351-201.084c0-58.268-23.971-143.03-59.645-210.926    C392.606,80.197,340.013,0,270.011,0c-70,0-122.596,80.197-147.712,128c-35.673,67.895-59.646,152.656-59.646,210.926    C62.66,451.688,153.737,540.016,270.011,540.016z M249.393,534.875l-0.612-0.416l0.11-0.018l0.575,0.441    C249.442,534.883,249.417,534.875,249.393,534.875z M259.724,532.092c0-0.006,0-0.02,0-0.025    C259.724,532.066,259.724,532.078,259.724,532.092C259.724,532.086,259.724,532.092,259.724,532.092z M452.204,407.428    c2.459-6.646,4.736-13.471,6.713-20.479C457.075,393.957,454.812,400.781,452.204,407.428z M255.813,13.556    c0.802-0.141,1.591-0.318,2.393-0.44c3.88-0.569,7.815-0.875,11.806-0.875c1.56,0,3.109,0.08,4.658,0.172    c0.998,0.061,1.988,0.141,2.98,0.238c0.686,0.067,1.365,0.141,2.043,0.227c0.344,0.043,0.686,0.067,1.023,0.116    c5.422,8.874,12.852,18.685,22.771,30.429c10.613,12.558,24.156,27.405,41.115,45.631c3.115,3.354,6.254,6.72,9.613,10.312    c11.652,12.473,22.768,24.529,33.27,36.279c10.232,11.444,19.803,22.571,28.623,33.421c5.686,6.995,11.082,13.893,16.07,20.667    c1.15,2.974,2.301,5.942,3.402,8.929c1.102,2.999,2.148,6.004,3.201,9.009c-6.873-10.343-14.707-20.924-23.402-31.787    c-1.316,11.138-3.367,22.503-6.262,33.966c15.123,17.638,27.559,35.006,37.352,52.191c1.512-5.404,2.912-10.9,4.068-16.585    c3.318,12.167,6.145,24.168,8.379,35.784c-0.232,1.389-0.49,2.76-0.74,4.137c0.918,2.117,1.793,4.23,2.631,6.342    c0.68,4.105,1.279,8.15,1.807,12.129c0.617,4.682,1.119,9.266,1.512,13.752c-1.922-7.674-4.432-15.514-7.596-23.525    c-3.273-8.299-7.264-16.781-12.014-25.465c-9.229-16.885-21.371-34.511-36.916-52.969c-9.266-10.998-19.785-22.301-31.578-33.905    c-4.314-4.241-8.74-8.513-13.41-12.84c-12.791-11.842-24.16-23.195-34.375-34.082c-16.623-17.724-29.994-34.15-40.6-49.211    c-8.912-12.656-15.889-24.346-21.201-35.019c-6.952-13.972-11.089-26.206-13.036-36.585    C254.197,13.831,255.005,13.703,255.813,13.556z M188.75,53.813c1.04-1.071,2.081-2.136,3.14-3.182    c1.102-1.089,2.209-2.167,3.329-3.231c-2.876,10.417-4.364,22.883-2.724,37.093c13.042-14.058,23.856-25.967,32.858-36.402    c-1.738-7.791-2.54-15.141-2.264-22.02c0.869-0.508,1.732-1.028,2.607-1.518c0.833-0.465,1.683-0.894,2.521-1.334    c-0.545,6.31-0.19,13.018,1.157,20.196c2.375,12.638,7.687,26.671,15.857,42.185c5.673,10.771,12.766,22.283,21.2,34.529    c10.458,15.19,23.035,31.549,37.693,49.131c6.689,8.023,13.758,16.273,21.311,24.817c9.584,10.838,18.58,21.15,27.014,31.004    c12.9,15.08,24.43,29.064,34.662,42.203c14.432,18.543,26.207,35.385,35.344,51.127c6.279,10.812,11.322,21.113,15.117,31.09    c4.895,12.852,7.723,25.184,8.525,37.404c7.49-17.08,13.928-35.746,18.824-55.979c0.025,0.6,0.025,1.18,0.043,1.785    c-4.793,19.535-10.336,37.627-17.602,54.199c0.838,12.73,0.33,25.35-3.219,38.33c-1.537,2.955-3.104,5.893-4.791,8.752    c-0.723,1.223-1.414,2.459-2.162,3.666c-0.635,1.021-1.328,2.014-1.982,3.023c-5.404,8.316-11.457,16.174-18.109,23.512    c-1.438,1.592-2.906,3.152-4.4,4.695c-1.621,1.67-3.248,3.322-4.932,4.932c1.357-2.809,2.705-5.66,4.002-8.758    c2.576-7.912,3.904-15.893,4.357-23.916c0.82-14.584-1.621-29.334-6.641-44.145c-4.148-12.264-10.006-24.564-17.197-36.854    c-9.596-16.402-21.463-32.785-34.67-49.004c-12.062-14.811-25.201-29.486-38.629-43.935    c-17.619-18.959-35.717-37.521-52.558-55.441c-13.752-14.639-26.616-28.837-37.693-42.503    c-5.385-6.646-10.398-13.176-14.81-19.547c-3.489-5.031-6.542-9.994-9.291-14.902c-8.978-16.016-14.167-31.359-16.371-45.771    C186.351,76.537,186.675,64.737,188.75,53.813z M118.963,163.024c0.643-1.438,1.267-2.889,1.922-4.321    c0.092,1.61,0.22,3.238,0.336,4.872c6.279-7.57,12.925-15.275,19.878-23.133c-0.863-6.041-1.524-11.989-1.94-17.821    c0.728-1.298,1.469-2.607,2.228-3.929c0.728-1.267,1.457-2.534,2.215-3.825c0.27,6.75,0.875,13.685,1.781,20.777    c0.692,5.404,1.536,10.888,2.601,16.475c1.91,10.024,4.951,19.896,8.868,29.627c5.955,14.798,13.996,29.26,23.562,43.342    c9.81,14.443,21.188,28.495,33.464,42.13c16.444,18.263,34.505,35.765,52.559,52.466c14.664,13.568,29.322,26.611,43.115,39.07    c15.955,14.414,30.705,28.049,42.994,40.875c1.377,1.439,2.76,2.877,4.076,4.297c10.184,10.998,17.404,21.01,22.312,30.166    c10.961,20.434,10.172,36.518,3.574,49.277c-4.908,9.498-12.986,17.168-21.811,23.428c-1.592,0.789-3.172,1.592-4.793,2.344    c-3.83,1.775-7.754,3.41-11.727,4.951c-3.5,1.354-7.055,2.607-10.66,3.77c-0.135,0.043-0.27,0.086-0.404,0.129    c-1.512,0.484-3.004,1.004-4.535,1.451c-0.049,0.043-0.109,0.08-0.158,0.123c-1.99,0.58-4.01,1.137-6.029,1.658    c-1.988,1.357-4.111,2.723-6.547,3.965c2.436-1.242,4.559-2.723,6.547-4.088c15.57-10.648,17.719-24.896,9.371-43.078    c-5.312-11.574-14.83-24.738-27.834-39.578c-10.41-11.885-23.061-24.859-37.498-38.936c-12.999-12.668-27.46-26.248-43.116-40.76    c-7.668-7.105-15.582-14.412-23.776-21.971c-8.954-8.256-16.977-16.842-24.291-25.625c-11.775-14.148-21.561-28.861-29.499-43.855    c-9.021-17.044-15.71-34.413-20.483-51.647c-4.37-15.777-7.111-31.42-8.513-46.585c-0.025-0.293-0.043-0.575-0.074-0.869    C117.434,166.47,118.192,164.744,118.963,163.024z M78.89,293.803c0.343-2.148,0.741-4.326,1.126-6.506    c3.923,20.02,10.08,38.629,17.834,55.877c2.778-6.512,6.059-13.178,9.872-20.045c-8.911-14.828-16.585-30.947-22.491-48.543    c-1.652,3.225-3.213,6.426-4.651,9.596c0.899-4.859,1.885-9.779,2.98-14.767c0.361-1.634,0.722-3.262,1.102-4.902    c0.355-1.524,0.74-3.06,1.107-4.596c0.796,2.95,1.689,5.826,2.583,8.703c5.643,18.084,13.158,34.639,22.057,49.805    c8.923,15.201,19.18,29.039,30.172,41.732c12.595,14.547,26.132,27.613,39.749,39.473c16.671,14.518,33.416,27.254,48.605,38.82    c14.4,10.961,27.332,20.857,37.498,30.195c0.881,0.809,1.812,1.629,2.65,2.43c18.402,17.602,22.883,30.65,20.74,40.24    c-1.627,7.27-5.611,12.557-11.756,16.309c-1.107,0.674-1.934,1.463-1.934,2.039c0,0.012,0,0.029,0,0.035    c0-0.072-1.445-0.127-1.434-0.201c1.133-0.582,1.543-1.205,2.65-1.885c-0.947,0.031-2.264,0.049-3.219,0.066    c-0.826,0.014-1.83,0.057-2.662,0.062c-0.428,0-0.937,0.029-1.365,0.029c-1.561,0-3.146-0.078-4.7-0.109    c-0.361-0.006-0.741-0.018-1.102-0.023c-0.869-0.025-1.75-0.031-2.613-0.062c-0.887-0.037-1.787-0.055-2.674-0.104    c-1.567-3.832-7.289-9.156-15.961-16.162c-10.576-8.545-25.368-19.549-41.947-33.287c-14.927-12.375-31.249-26.959-47.167-43.936    c-10.563-11.268-20.9-23.643-30.557-37.076c-10.435-14.516-20.019-30.318-28.091-47.496    c-7.167-15.252-13.079-31.609-17.375-49.064C78.223,298.24,78.529,296.043,78.89,293.803z M87.17,406.043    c-0.293-2.717-0.489-5.428-0.581-8.139c-2.191-4.602-4.296-9.357-6.334-14.193c-1.083-4.461-2.013-8.982-2.772-13.566    c-0.624-3.771-1.168-7.572-1.566-11.42c3.286,9.828,6.916,19.234,10.851,28.199c8.88,20.258,19.187,38.312,29.976,54.236    c11.04,16.291,22.57,30.33,33.617,42.209c5.704,6.139,11.286,11.738,16.585,16.727c12.197,7.215,25.331,13.141,39.199,17.65    c2.95,2.613,6.512,5.215,10.881,7.447c-4.37-2.232-7.932-4.754-10.881-7.367c-13.825-4.492-26.922-10.441-39.088-17.627    c-0.037-0.035-0.074-0.066-0.11-0.104c-2.968-1.756-5.875-3.598-8.733-5.508c-0.092-0.061-0.177-0.123-0.269-0.184    c-3.789-2.533-7.479-5.189-11.053-7.975c-9.547-10.299-19.45-22.143-29.101-35.648c0.539,3.391,1.279,6.768,2.203,10.135    C106.05,444.783,94.894,426.289,87.17,406.043z" fill="#999999"/>
	</g>
</g>
<g>
</g>
<g>
</g>
<g>
</g>
<g>
</g>
<g>
</g>
<g>
</g>
<g>
</g>
<g>
</g>
<g>
</g>
<g>
</g>
<g>
</g>
<g>
</g>
<g>
</g>
<g>
</g>
<g>
</g>
</svg>
